<?xml version="1.0" encoding="UTF-8" standalone="no"?>
<!DOCTYPE svg PUBLIC "-//W3C//DTD SVG 1.1//EN" "http://www.w3.org/Graphics/SVG/1.1/DTD/svg11.dtd">
<svg width="100%" height="100%" viewBox="0 0 1080 1080" version="1.1" xmlns="http://www.w3.org/2000/svg" xmlns:xlink="http://www.w3.org/1999/xlink" xml:space="preserve" xmlns:serif="http://www.serif.com/" style="fill-rule:evenodd;clip-rule:evenodd;stroke-linejoin:round;stroke-miterlimit:2;">
    <path d="M821,464C822.667,464.667 825.927,465.07 828,464C833.167,461.333 843.429,452.356 852,448C862.167,442.833 880.167,435.833 889,433C894.118,431.358 900.167,431.333 905,431C909.323,430.702 913.693,430.521 918,431C922.5,431.5 928.167,432.833 932,434C935.141,434.956 938.254,436.201 941,438C945.833,441.167 955.833,449 961,453C964.746,455.9 968.333,459.5 972,462C975.451,464.353 979.667,466.333 983,468C985.936,469.468 988.856,471.057 992,472C995.333,473 1000,473.5 1003,474C1005.33,474.387 1008.5,474.333 1010,475C1011.1,475.488 1011.78,476.818 1012,478C1012.33,479.833 1012.5,483.5 1012,486C1011.5,488.489 1010.2,490.765 1009,493C1006.67,497.333 1001.99,505.867 998,512C993.333,519.167 986,529.167 981,536C976.788,541.757 972.436,547.414 968,553C963.5,558.667 957.667,565.667 954,570C951.407,573.064 947.667,576.833 946,579C945.091,580.182 943.833,581.833 944,583C944.167,584.167 946,585.167 947,586C947.923,586.769 948.878,587.569 950,588C952.167,588.833 957.167,590.333 960,591C962.294,591.54 964.833,591.333 967,592C969.137,592.658 971.031,593.94 973,595C975.167,596.167 978.167,597.667 980,599C981.525,600.109 982.822,601.528 984,603C985.333,604.667 986.833,607 988,609C989.127,610.931 990,613 991,615C992.167,617.333 994.167,620.5 995,623C995.745,625.236 995.538,627.689 996,630C997,635 999.71,645.261 1001,653C1002.83,664 1005.83,682.167 1007,696C1008.12,709.29 1008,724.833 1008,736C1008,745.006 1007.33,755.667 1007,763C1006.74,768.671 1006.14,774.325 1006,780C1005.83,786.833 1006.17,796.333 1006,804C1005.84,811.339 1005.22,818.662 1005,826C1004.67,837.333 1003.83,861.333 1004,872C1004.09,878.036 1005.19,884.018 1006,890C1007.33,899.833 1011,923.167 1012,931C1012.25,932.984 1013.98,936.736 1012,937C1009.5,937.333 1001.85,934.802 997,933C991.167,930.833 983.376,927.577 977,924C970.167,920.167 962.933,914.766 956,910C948,904.5 938.249,896.963 929,891C916.333,882.833 892.5,868.667 880,861C871.325,855.68 861.333,849.667 854,845C847.916,841.129 842,837 836,833C828.5,828 816,820.667 809,815C803.318,810.4 798,804.833 794,799C790.037,793.22 787.333,786.5 785,780C782.678,773.532 782.333,764.667 780,760C778.205,756.41 774,753.833 771,752C768.302,750.351 765,750 762,749C758,747.667 751.5,745 747,744C743.082,743.129 739.014,743 735,743C730.833,743 726.262,743.148 722,744C717,745 710.675,747.361 705,749C697.5,751.167 686.339,754.354 677,757C667,759.833 654.333,763 645,766C636.866,768.615 628.968,771.916 621,775C610.667,779 594.5,785.5 583,790C572.681,794.038 562.192,797.653 552,802C540.667,806.833 527.289,813.237 515,819C490.833,830.333 432.167,857.5 407,870C392.299,877.302 378,886 364,894C350.251,901.857 336.429,909.607 323,918C308.333,927.167 291.415,938.295 276,949C258,961.5 235.167,980.5 215,993C195.866,1004.86 166.667,1018.83 155,1024C151.952,1025.35 142.454,1026.15 145,1024C159,1012.17 216.833,969.833 239,953C252.062,943.081 265.421,933.525 278,923C294.333,909.333 321.333,885.667 337,871C349.218,859.562 364,843.833 372,835C376.789,829.713 382.333,822.167 385,818C386.535,815.601 388.333,811.833 388,810C387.667,808.167 384.82,807.682 383,807C379,805.5 370.572,801.958 364,801C356,799.833 344.612,798.917 335,800C323.167,801.333 306.841,805.336 293,809C276,813.5 252.903,820.687 233,827C202,836.833 139.333,858.333 107,868C84.615,874.692 56.833,881 39,885C26.112,887.891 6.5,891.5 0,892C-1.329,892.102 -0.8,889.067 0,888C1,886.667 3.913,885.193 6,884C8.333,882.667 11.253,881.16 14,880C21.5,876.833 38.591,869.809 51,865C64.333,859.833 80.833,853.667 94,849C105.922,844.774 117.988,840.965 130,837C147.167,831.333 174.904,823.02 197,815C219.5,806.833 243.833,797.167 265,788C284.976,779.349 308.167,767.5 324,760C335.993,754.319 347.943,748.544 360,743C374.5,736.333 394.227,728.15 411,720C434.667,708.5 478,686.833 502,674C520.049,664.349 542.667,650.5 555,643C562.188,638.629 571.333,633.167 576,629C579.242,626.105 582.167,621 583,618C583.649,615.662 582.19,613.115 581,611C579.5,608.333 576.187,605.108 574,602C570.833,597.5 565.287,590.418 562,584C558.5,577.167 555.705,568.776 553,561C549,549.5 541.333,526.833 538,515C535.696,506.82 534.317,498.396 533,490C531.667,481.5 531,469.667 530,464C529.505,461.195 528.61,458.349 527,456C520.833,447 504.53,425.186 493,410C479.333,392 461.251,368.47 445,348C427.667,326.167 407.505,302.131 389,279C369.667,254.833 340.167,217.833 329,203C326.04,199.068 323.641,194.64 322,190C317.167,176.333 306.952,144.118 300,121C292.833,97.167 265.667,52.333 279,47C292.333,41.667 349.333,74.667 380,89C408.368,102.259 438.333,119.167 463,133C485.038,145.359 508.667,159.5 528,172C545.474,183.298 562.667,196 579,208C594.904,219.684 614.5,234.833 626,244C633.577,250.04 640.403,256.986 648,263C656,269.333 664.823,276.432 674,282C688.833,291 719,306 737,317C752.542,326.498 772.833,341.167 782,348C785.779,350.817 788.877,354.469 792,358C795.833,362.333 801.667,368.5 805,374C808.176,379.241 810.198,385.143 812,391C814,397.5 816.167,405.833 817,413C817.809,419.953 817.333,428.333 817,434C816.743,438.377 815.167,443.333 815,447C814.863,450.015 815.5,453.833 816,456C816.335,457.453 817.21,458.736 818,460C818.833,461.333 819.453,463.381 821,464Z" style="fill:rgb(8,46,92);"/>
</svg>
